<svg width="450" height="150" viewBox="0 0 450 150" fill="none" xmlns="http://www.w3.org/2000/svg">
<path d="M30.1582 124.679C24.0779 124.679 18.7678 123.287 14.2279 120.505C9.68791 117.722 6.16135 113.27 3.64817 107.149C1.21606 101.027 0 93.004 0 83.0796V32.0197H14.1062V84.3317C14.1062 90.9171 14.7548 96.1576 16.0519 100.053C17.4301 103.856 19.3353 106.592 21.7674 108.262C24.1995 109.838 26.9964 110.627 30.1582 110.627C33.401 110.627 36.2385 109.838 38.6706 108.262C41.1838 106.592 43.1295 103.856 44.5076 100.053C45.9669 96.1576 46.6965 90.9171 46.6965 84.3317V32.0197H60.1948V83.0796C60.1948 93.004 58.9787 101.027 56.5466 107.149C54.1145 113.27 50.6285 117.722 46.0885 120.505C41.6296 123.287 36.3195 124.679 30.1582 124.679Z" fill="#1F363D"/>
<path d="M78.8337 150V54.6975H90.3862L91.359 61.9322H91.8455C94.3587 59.5206 97.1556 57.4337 100.236 55.6714C103.398 53.9091 106.6 53.028 109.843 53.028C117.302 53.028 123.058 56.1816 127.111 62.4887C131.246 68.7958 133.313 77.2362 133.313 87.8099C133.313 95.6011 132.097 102.279 129.665 107.844C127.233 113.317 124.071 117.49 120.18 120.366C116.369 123.241 112.235 124.679 107.776 124.679C105.182 124.679 102.587 124.029 99.993 122.731C97.3988 121.34 94.8856 119.485 92.4535 117.166L92.8183 128.574V150H78.8337ZM104.857 111.462C108.83 111.462 112.154 109.467 114.829 105.479C117.504 101.491 118.842 95.6474 118.842 87.949C118.842 81.0854 117.829 75.7522 115.802 71.9494C113.775 68.1465 110.492 66.2451 105.952 66.2451C101.736 66.2451 97.3583 68.7958 92.8183 73.8972V105.757C95.0072 107.798 97.115 109.282 99.1418 110.209C101.169 111.044 103.074 111.462 104.857 111.462Z" fill="#1F363D"/>
<path d="M143.218 123.009V113.688C150.433 105.711 156.635 98.6155 161.824 92.4011C167.093 86.094 171.147 80.3898 173.984 75.2884C176.822 70.0943 178.241 65.2712 178.241 60.8192C178.241 56.1816 177.146 52.4715 174.957 49.6889C172.768 46.9064 169.607 45.5151 165.472 45.5151C162.472 45.5151 159.716 46.489 157.203 48.4368C154.771 50.3846 152.501 52.7034 150.393 55.3932L142.61 46.489C146.177 42.1297 149.866 38.7906 153.676 36.4718C157.487 34.0603 162.026 32.8545 167.296 32.8545C174.755 32.8545 180.673 35.3124 185.05 40.2283C189.509 45.1441 191.739 51.7295 191.739 59.9844C191.739 65.1785 190.442 70.5117 187.847 75.9841C185.334 81.3637 181.929 86.8824 177.633 92.5403C173.417 98.1981 168.755 104.134 163.648 110.349C165.675 110.163 167.864 109.978 170.215 109.792C172.566 109.514 174.673 109.375 176.538 109.375H195.509V123.009H143.218Z" fill="#1F363D"/>
<path d="M211.037 123.009V32.0197H232.318C244.479 32.0197 253.964 35.7762 260.774 43.2891C267.584 50.802 270.989 62.0713 270.989 77.0971C270.989 92.2156 267.624 103.67 260.895 111.462C254.166 119.16 244.884 123.009 233.048 123.009H211.037ZM225.143 109.931H231.345C239.371 109.931 245.573 107.288 249.951 102.001C254.329 96.6213 256.517 88.3201 256.517 77.0971C256.517 65.9669 254.329 57.8511 249.951 52.7498C245.573 47.6484 239.371 45.0977 231.345 45.0977H225.143V109.931Z" fill="#1F363D"/>
<path d="M300.296 124.679C295.107 124.679 290.851 122.824 287.527 119.114C284.284 115.404 282.663 110.58 282.663 104.644C282.663 97.317 285.46 91.6591 291.054 87.6708C296.647 83.5897 305.565 80.8072 317.807 79.3231C317.726 75.7058 316.874 72.5986 315.253 70.0016C313.713 67.3118 310.916 65.9669 306.862 65.9669C303.944 65.9669 301.066 66.6161 298.228 67.9147C295.472 69.2132 292.756 70.79 290.081 72.645L284.973 61.9322C288.297 59.5206 292.026 57.4337 296.161 55.6714C300.377 53.9091 304.835 53.028 309.538 53.028C316.996 53.028 322.549 55.5787 326.198 60.68C329.927 65.6886 331.791 72.9696 331.791 82.5231V123.009H320.239L319.266 115.496H318.78C316.104 118.093 313.226 120.273 310.146 122.035C307.146 123.798 303.863 124.679 300.296 124.679ZM304.795 112.157C307.227 112.157 309.416 111.508 311.362 110.209C313.388 108.818 315.537 106.963 317.807 104.644V89.3403C309.7 90.5461 304.065 92.3548 300.904 94.7663C297.742 97.0851 296.161 99.9604 296.161 103.392C296.161 106.453 296.972 108.679 298.593 110.07C300.214 111.462 302.282 112.157 304.795 112.157Z" fill="#1F363D"/>
<path d="M367.665 124.679C360.774 124.679 355.869 122.406 352.951 117.861C350.113 113.224 348.695 107.241 348.695 99.914V67.3582H340.182V55.3932L349.424 54.6975L351.127 36.0544H362.801V54.6975H378.001V67.3582H362.801V99.914C362.801 107.891 365.598 111.879 371.192 111.879C372.245 111.879 373.34 111.74 374.475 111.462C375.61 111.091 376.583 110.72 377.393 110.349L379.826 122.174C378.204 122.824 376.34 123.38 374.232 123.844C372.205 124.4 370.016 124.679 367.665 124.679Z" fill="#1F363D"/>
<path d="M414.204 124.679C408.691 124.679 403.705 123.287 399.246 120.505C394.787 117.63 391.261 113.549 388.667 108.262C386.072 102.882 384.775 96.4358 384.775 88.9229C384.775 81.5028 386.072 75.1029 388.667 69.7233C391.342 64.3437 394.788 60.2163 399.003 57.341C403.219 54.4657 407.637 53.028 412.258 53.028C417.69 53.028 422.23 54.4193 425.878 57.2018C429.526 59.8916 432.283 63.6945 434.147 68.6103C436.012 73.4334 436.944 79.0449 436.944 85.4447C436.944 88.7838 436.741 91.3809 436.336 93.2359H398.395C399.044 99.2648 400.949 103.949 404.111 107.288C407.272 110.627 411.245 112.296 416.028 112.296C418.622 112.296 421.014 111.879 423.203 111.044C425.473 110.117 427.702 108.865 429.891 107.288L434.634 117.305C431.796 119.438 428.634 121.201 425.148 122.592C421.662 123.983 418.014 124.679 414.204 124.679ZM398.274 82.3839H424.784C424.784 77.0971 423.77 72.9696 421.743 70.0016C419.717 66.9408 416.677 65.4104 412.623 65.4104C409.137 65.4104 406.016 66.8944 403.259 69.8625C400.584 72.7378 398.922 76.9116 398.274 82.3839Z" fill="#1F363D"/>
<path d="M409.218 12.7251C409.218 19.753 404.238 25.4502 398.095 25.4502C391.952 25.4502 386.973 19.753 386.973 12.7251C386.973 5.69722 391.952 0 398.095 0C404.238 0 409.218 5.69722 409.218 12.7251Z" fill="#1F363D"/>
<path d="M450 12.7251C450 19.753 445.02 25.4502 438.878 25.4502C432.735 25.4502 427.755 19.753 427.755 12.7251C427.755 5.69722 432.735 0 438.878 0C445.02 0 450 5.69722 450 12.7251Z" fill="#1F363D"/>
</svg>
