<svg width="322" height="95" viewBox="0 0 322 95" fill="none" xmlns="http://www.w3.org/2000/svg">
<path d="M12.0117 83.4414C12.0117 84.457 11.7578 85.3242 11.25 86.043C10.75 86.7539 10.0469 87.2969 9.14062 87.6719C8.23438 88.0469 7.16797 88.2344 5.94141 88.2344C5.29297 88.2344 4.67969 88.2031 4.10156 88.1406C3.52344 88.0781 2.99219 87.9883 2.50781 87.8711C2.02344 87.7539 1.59766 87.6094 1.23047 87.4375V85.5273C1.81641 85.7695 2.53125 85.9961 3.375 86.207C4.21875 86.4102 5.10156 86.5117 6.02344 86.5117C6.88281 86.5117 7.60938 86.3984 8.20312 86.1719C8.79688 85.9375 9.24609 85.6055 9.55078 85.1758C9.86328 84.7383 10.0195 84.2148 10.0195 83.6055C10.0195 83.0195 9.89062 82.5312 9.63281 82.1406C9.375 81.7422 8.94531 81.3828 8.34375 81.0625C7.75 80.7344 6.9375 80.3867 5.90625 80.0195C5.17969 79.7617 4.53906 79.4805 3.98438 79.1758C3.42969 78.8633 2.96484 78.5117 2.58984 78.1211C2.21484 77.7305 1.92969 77.2773 1.73438 76.7617C1.54688 76.2461 1.45312 75.6562 1.45312 74.9922C1.45312 74.0781 1.68359 73.2969 2.14453 72.6484C2.61328 71.9922 3.25781 71.4922 4.07812 71.1484C4.90625 70.7969 5.85547 70.6211 6.92578 70.6211C7.83984 70.6211 8.68359 70.707 9.45703 70.8789C10.2383 71.0508 10.9531 71.2812 11.6016 71.5703L10.9805 73.2812C10.3633 73.0234 9.70703 72.8086 9.01172 72.6367C8.32422 72.4648 7.61328 72.3789 6.87891 72.3789C6.14453 72.3789 5.52344 72.4883 5.01562 72.707C4.51562 72.918 4.13281 73.2188 3.86719 73.6094C3.60156 74 3.46875 74.4648 3.46875 75.0039C3.46875 75.6055 3.59375 76.1055 3.84375 76.5039C4.10156 76.9023 4.50781 77.2578 5.0625 77.5703C5.625 77.875 6.36719 78.1953 7.28906 78.5312C8.29688 78.8984 9.15234 79.2891 9.85547 79.7031C10.5586 80.1094 11.0938 80.6094 11.4609 81.2031C11.8281 81.7891 12.0117 82.5352 12.0117 83.4414ZM19.3711 86.6406C19.6914 86.6406 20.0195 86.6133 20.3555 86.5586C20.6914 86.5039 20.9648 86.4375 21.1758 86.3594V87.8711C20.9492 87.9727 20.6328 88.0586 20.2266 88.1289C19.8281 88.1992 19.4375 88.2344 19.0547 88.2344C18.375 88.2344 17.7578 88.1172 17.2031 87.8828C16.6484 87.6406 16.2031 87.2344 15.8672 86.6641C15.5391 86.0938 15.375 85.3047 15.375 84.2969V76.6797H13.5469V75.7305L15.3867 74.9688L16.1602 72.1797H17.332V75.1562H21.0938V76.6797H17.332V84.2383C17.332 85.043 17.5156 85.6445 17.8828 86.043C18.2578 86.4414 18.7539 86.6406 19.3711 86.6406ZM28.582 74.9453C30.1133 74.9453 31.25 75.2891 31.9922 75.9766C32.7344 76.6641 33.1055 77.7617 33.1055 79.2695V88H31.6875L31.3125 86.1016H31.2188C30.8594 86.5703 30.4844 86.9648 30.0938 87.2852C29.7031 87.5977 29.25 87.8359 28.7344 88C28.2266 88.1562 27.6016 88.2344 26.8594 88.2344C26.0781 88.2344 25.3828 88.0977 24.7734 87.8242C24.1719 87.5508 23.6953 87.1367 23.3438 86.582C23 86.0273 22.8281 85.3242 22.8281 84.4727C22.8281 83.1914 23.3359 82.207 24.3516 81.5195C25.3672 80.832 26.9141 80.457 28.9922 80.3945L31.207 80.3008V79.5156C31.207 78.4062 30.9688 77.6289 30.4922 77.1836C30.0156 76.7383 29.3438 76.5156 28.4766 76.5156C27.8047 76.5156 27.1641 76.6133 26.5547 76.8086C25.9453 77.0039 25.3672 77.2344 24.8203 77.5L24.2227 76.0234C24.8008 75.7266 25.4648 75.4727 26.2148 75.2617C26.9648 75.0508 27.7539 74.9453 28.582 74.9453ZM31.1836 81.6719L29.2266 81.7539C27.625 81.8164 26.4961 82.0781 25.8398 82.5391C25.1836 83 24.8555 83.6523 24.8555 84.4961C24.8555 85.2305 25.0781 85.7734 25.5234 86.125C25.9688 86.4766 26.5586 86.6523 27.293 86.6523C28.4336 86.6523 29.3672 86.3359 30.0938 85.7031C30.8203 85.0703 31.1836 84.1211 31.1836 82.8555V81.6719ZM35.0859 75.1562H37.1719L40.0078 82.6094C40.1719 83.0469 40.3242 83.4688 40.4648 83.875C40.6055 84.2734 40.7305 84.6562 40.8398 85.0234C40.9492 85.3906 41.0352 85.7461 41.0977 86.0898H41.1797C41.2891 85.6992 41.4453 85.1875 41.6484 84.5547C41.8516 83.9141 42.0703 83.2617 42.3047 82.5977L44.9883 75.1562H47.0859L41.4961 89.8867C41.1992 90.6758 40.8516 91.3633 40.4531 91.9492C40.0625 92.5352 39.5859 92.9844 39.0234 93.2969C38.4609 93.6172 37.7812 93.7773 36.9844 93.7773C36.6172 93.7773 36.293 93.7539 36.0117 93.707C35.7305 93.668 35.4883 93.6211 35.2852 93.5664V92.0078C35.457 92.0469 35.6641 92.082 35.9062 92.1133C36.1562 92.1445 36.4141 92.1602 36.6797 92.1602C37.1641 92.1602 37.582 92.0664 37.9336 91.8789C38.293 91.6992 38.6016 91.4336 38.8594 91.082C39.1172 90.7305 39.3398 90.3125 39.5273 89.8281L40.2305 88.0234L35.0859 75.1562ZM57.3164 75.1562V88H55.3711V75.1562H57.3164ZM56.3672 70.3516C56.6875 70.3516 56.9609 70.457 57.1875 70.668C57.4219 70.8711 57.5391 71.1914 57.5391 71.6289C57.5391 72.0586 57.4219 72.3789 57.1875 72.5898C56.9609 72.8008 56.6875 72.9062 56.3672 72.9062C56.0312 72.9062 55.75 72.8008 55.5234 72.5898C55.3047 72.3789 55.1953 72.0586 55.1953 71.6289C55.1953 71.1914 55.3047 70.8711 55.5234 70.668C55.75 70.457 56.0312 70.3516 56.3672 70.3516ZM67.5234 74.9219C69.0469 74.9219 70.1992 75.2969 70.9805 76.0469C71.7617 76.7891 72.1523 77.9844 72.1523 79.6328V88H70.2305V79.7617C70.2305 78.6914 69.9844 77.8906 69.4922 77.3594C69.0078 76.8281 68.2617 76.5625 67.2539 76.5625C65.832 76.5625 64.832 76.9648 64.2539 77.7695C63.6758 78.5742 63.3867 79.7422 63.3867 81.2734V88H61.4414V75.1562H63.0117L63.3047 77.0078H63.4102C63.6836 76.5547 64.0312 76.1758 64.4531 75.8711C64.875 75.5586 65.3477 75.3242 65.8711 75.168C66.3945 75.0039 66.9453 74.9219 67.5234 74.9219ZM81.8789 76.6797H78.6797V88H76.7344V76.6797H74.4609V75.7422L76.7344 75.0977V74.2422C76.7344 73.1641 76.8945 72.2891 77.2148 71.6172C77.5352 70.9375 78 70.4375 78.6094 70.1172C79.2188 69.7969 79.9609 69.6367 80.8359 69.6367C81.3281 69.6367 81.7773 69.6797 82.1836 69.7656C82.5977 69.8516 82.9609 69.9492 83.2734 70.0586L82.7695 71.5938C82.5039 71.5078 82.2031 71.4297 81.8672 71.3594C81.5391 71.2812 81.2031 71.2422 80.8594 71.2422C80.1172 71.2422 79.5664 71.4844 79.207 71.9688C78.8555 72.4453 78.6797 73.1953 78.6797 74.2188V75.1562H81.8789V76.6797ZM95.3203 81.5547C95.3203 82.6094 95.1836 83.5508 94.9102 84.3789C94.6367 85.207 94.2422 85.9062 93.7266 86.4766C93.2109 87.0469 92.5859 87.4844 91.8516 87.7891C91.125 88.0859 90.3008 88.2344 89.3789 88.2344C88.5195 88.2344 87.7305 88.0859 87.0117 87.7891C86.3008 87.4844 85.6836 87.0469 85.1602 86.4766C84.6445 85.9062 84.2422 85.207 83.9531 84.3789C83.6719 83.5508 83.5312 82.6094 83.5312 81.5547C83.5312 80.1484 83.7695 78.9531 84.2461 77.9688C84.7227 76.9766 85.4023 76.2227 86.2852 75.707C87.1758 75.1836 88.2344 74.9219 89.4609 74.9219C90.6328 74.9219 91.6562 75.1836 92.5312 75.707C93.4141 76.2305 94.0977 76.9883 94.582 77.9805C95.0742 78.9648 95.3203 80.1562 95.3203 81.5547ZM85.5469 81.5547C85.5469 82.5859 85.6836 83.4805 85.957 84.2383C86.2305 84.9961 86.6523 85.582 87.2227 85.9961C87.793 86.4102 88.5273 86.6172 89.4258 86.6172C90.3164 86.6172 91.0469 86.4102 91.6172 85.9961C92.1953 85.582 92.6211 84.9961 92.8945 84.2383C93.168 83.4805 93.3047 82.5859 93.3047 81.5547C93.3047 80.5312 93.168 79.6484 92.8945 78.9062C92.6211 78.1562 92.1992 77.5781 91.6289 77.1719C91.0586 76.7656 90.3203 76.5625 89.4141 76.5625C88.0781 76.5625 87.0977 77.0039 86.4727 77.8867C85.8555 78.7695 85.5469 79.9922 85.5469 81.5547ZM104.52 74.9219C104.777 74.9219 105.047 74.9375 105.328 74.9688C105.609 74.9922 105.859 75.0273 106.078 75.0742L105.832 76.8789C105.621 76.8242 105.387 76.7812 105.129 76.75C104.871 76.7188 104.629 76.7031 104.402 76.7031C103.887 76.7031 103.398 76.8086 102.938 77.0195C102.484 77.2227 102.086 77.5195 101.742 77.9102C101.398 78.293 101.129 78.7578 100.934 79.3047C100.738 79.8438 100.641 80.4453 100.641 81.1094V88H98.6836V75.1562H100.301L100.512 77.5234H100.594C100.859 77.0469 101.18 76.6133 101.555 76.2227C101.93 75.8242 102.363 75.5078 102.855 75.2734C103.355 75.0391 103.91 74.9219 104.52 74.9219ZM122.449 74.9219C123.863 74.9219 124.93 75.293 125.648 76.0352C126.367 76.7695 126.727 77.9531 126.727 79.5859V88H124.805V79.6797C124.805 78.6406 124.578 77.8633 124.125 77.3477C123.68 76.8242 123.016 76.5625 122.133 76.5625C120.891 76.5625 119.988 76.9219 119.426 77.6406C118.863 78.3594 118.582 79.418 118.582 80.8164V88H116.648V79.6797C116.648 78.9844 116.547 78.4062 116.344 77.9453C116.148 77.4844 115.852 77.1406 115.453 76.9141C115.062 76.6797 114.566 76.5625 113.965 76.5625C113.113 76.5625 112.43 76.7383 111.914 77.0898C111.398 77.4414 111.023 77.9648 110.789 78.6602C110.562 79.3477 110.449 80.1953 110.449 81.2031V88H108.504V75.1562H110.074L110.367 76.9727H110.473C110.73 76.5273 111.055 76.1523 111.445 75.8477C111.836 75.543 112.273 75.3125 112.758 75.1562C113.242 75 113.758 74.9219 114.305 74.9219C115.281 74.9219 116.098 75.1055 116.754 75.4727C117.418 75.832 117.898 76.3828 118.195 77.125H118.301C118.723 76.3828 119.301 75.832 120.035 75.4727C120.77 75.1055 121.574 74.9219 122.449 74.9219ZM135.668 74.9219C136.762 74.9219 137.699 75.1641 138.48 75.6484C139.262 76.1328 139.859 76.8125 140.273 77.6875C140.688 78.5547 140.895 79.5703 140.895 80.7344V81.9414H132.023C132.047 83.4492 132.422 84.5977 133.148 85.3867C133.875 86.1758 134.898 86.5703 136.219 86.5703C137.031 86.5703 137.75 86.4961 138.375 86.3477C139 86.1992 139.648 85.9805 140.32 85.6914V87.4023C139.672 87.6914 139.027 87.9023 138.387 88.0352C137.754 88.168 137.004 88.2344 136.137 88.2344C134.902 88.2344 133.824 87.9844 132.902 87.4844C131.988 86.9766 131.277 86.2344 130.77 85.2578C130.262 84.2812 130.008 83.0859 130.008 81.6719C130.008 80.2891 130.238 79.0938 130.699 78.0859C131.168 77.0703 131.824 76.2891 132.668 75.7422C133.52 75.1953 134.52 74.9219 135.668 74.9219ZM135.645 76.5156C134.605 76.5156 133.777 76.8555 133.16 77.5352C132.543 78.2148 132.176 79.1641 132.059 80.3828H138.855C138.848 79.6172 138.727 78.9453 138.492 78.3672C138.266 77.7812 137.918 77.3281 137.449 77.0078C136.98 76.6797 136.379 76.5156 135.645 76.5156ZM148.77 88.2344C147.145 88.2344 145.855 87.6797 144.902 86.5703C143.957 85.4609 143.484 83.8125 143.484 81.625C143.484 79.4141 143.969 77.7461 144.938 76.6211C145.906 75.4883 147.195 74.9219 148.805 74.9219C149.484 74.9219 150.078 75.0117 150.586 75.1914C151.094 75.3711 151.531 75.6133 151.898 75.918C152.266 76.2148 152.574 76.5547 152.824 76.9375H152.965C152.934 76.6953 152.902 76.3633 152.871 75.9414C152.84 75.5195 152.824 75.1758 152.824 74.9102V69.7656H154.77V88H153.199L152.906 86.1719H152.824C152.582 86.5547 152.273 86.9023 151.898 87.2148C151.531 87.5273 151.09 87.7773 150.574 87.9648C150.066 88.1445 149.465 88.2344 148.77 88.2344ZM149.074 86.6172C150.449 86.6172 151.422 86.2266 151.992 85.4453C152.562 84.6641 152.848 83.5039 152.848 81.9648V81.6133C152.848 79.9805 152.574 78.7266 152.027 77.8516C151.488 76.9766 150.504 76.5391 149.074 76.5391C147.879 76.5391 146.984 77 146.391 77.9219C145.797 78.8359 145.5 80.0859 145.5 81.6719C145.5 83.25 145.793 84.4688 146.379 85.3281C146.973 86.1875 147.871 86.6172 149.074 86.6172ZM161.121 85.2109L161.273 85.4805C161.133 86.0508 160.953 86.6602 160.734 87.3086C160.523 87.957 160.289 88.6055 160.031 89.2539C159.781 89.9102 159.527 90.5234 159.27 91.0938H157.816C157.98 90.4688 158.141 89.8086 158.297 89.1133C158.453 88.4258 158.594 87.7461 158.719 87.0742C158.852 86.3945 158.957 85.7734 159.035 85.2109H161.121ZM181.301 83.4414C181.301 84.457 181.047 85.3242 180.539 86.043C180.039 86.7539 179.336 87.2969 178.43 87.6719C177.523 88.0469 176.457 88.2344 175.23 88.2344C174.582 88.2344 173.969 88.2031 173.391 88.1406C172.812 88.0781 172.281 87.9883 171.797 87.8711C171.312 87.7539 170.887 87.6094 170.52 87.4375V85.5273C171.105 85.7695 171.82 85.9961 172.664 86.207C173.508 86.4102 174.391 86.5117 175.312 86.5117C176.172 86.5117 176.898 86.3984 177.492 86.1719C178.086 85.9375 178.535 85.6055 178.84 85.1758C179.152 84.7383 179.309 84.2148 179.309 83.6055C179.309 83.0195 179.18 82.5312 178.922 82.1406C178.664 81.7422 178.234 81.3828 177.633 81.0625C177.039 80.7344 176.227 80.3867 175.195 80.0195C174.469 79.7617 173.828 79.4805 173.273 79.1758C172.719 78.8633 172.254 78.5117 171.879 78.1211C171.504 77.7305 171.219 77.2773 171.023 76.7617C170.836 76.2461 170.742 75.6562 170.742 74.9922C170.742 74.0781 170.973 73.2969 171.434 72.6484C171.902 71.9922 172.547 71.4922 173.367 71.1484C174.195 70.7969 175.145 70.6211 176.215 70.6211C177.129 70.6211 177.973 70.707 178.746 70.8789C179.527 71.0508 180.242 71.2812 180.891 71.5703L180.27 73.2812C179.652 73.0234 178.996 72.8086 178.301 72.6367C177.613 72.4648 176.902 72.3789 176.168 72.3789C175.434 72.3789 174.812 72.4883 174.305 72.707C173.805 72.918 173.422 73.2188 173.156 73.6094C172.891 74 172.758 74.4648 172.758 75.0039C172.758 75.6055 172.883 76.1055 173.133 76.5039C173.391 76.9023 173.797 77.2578 174.352 77.5703C174.914 77.875 175.656 78.1953 176.578 78.5312C177.586 78.8984 178.441 79.2891 179.145 79.7031C179.848 80.1094 180.383 80.6094 180.75 81.2031C181.117 81.7891 181.301 82.5352 181.301 83.4414ZM188.66 86.6406C188.98 86.6406 189.309 86.6133 189.645 86.5586C189.98 86.5039 190.254 86.4375 190.465 86.3594V87.8711C190.238 87.9727 189.922 88.0586 189.516 88.1289C189.117 88.1992 188.727 88.2344 188.344 88.2344C187.664 88.2344 187.047 88.1172 186.492 87.8828C185.938 87.6406 185.492 87.2344 185.156 86.6641C184.828 86.0938 184.664 85.3047 184.664 84.2969V76.6797H182.836V75.7305L184.676 74.9688L185.449 72.1797H186.621V75.1562H190.383V76.6797H186.621V84.2383C186.621 85.043 186.805 85.6445 187.172 86.043C187.547 86.4414 188.043 86.6406 188.66 86.6406ZM197.871 74.9453C199.402 74.9453 200.539 75.2891 201.281 75.9766C202.023 76.6641 202.395 77.7617 202.395 79.2695V88H200.977L200.602 86.1016H200.508C200.148 86.5703 199.773 86.9648 199.383 87.2852C198.992 87.5977 198.539 87.8359 198.023 88C197.516 88.1562 196.891 88.2344 196.148 88.2344C195.367 88.2344 194.672 88.0977 194.062 87.8242C193.461 87.5508 192.984 87.1367 192.633 86.582C192.289 86.0273 192.117 85.3242 192.117 84.4727C192.117 83.1914 192.625 82.207 193.641 81.5195C194.656 80.832 196.203 80.457 198.281 80.3945L200.496 80.3008V79.5156C200.496 78.4062 200.258 77.6289 199.781 77.1836C199.305 76.7383 198.633 76.5156 197.766 76.5156C197.094 76.5156 196.453 76.6133 195.844 76.8086C195.234 77.0039 194.656 77.2344 194.109 77.5L193.512 76.0234C194.09 75.7266 194.754 75.4727 195.504 75.2617C196.254 75.0508 197.043 74.9453 197.871 74.9453ZM200.473 81.6719L198.516 81.7539C196.914 81.8164 195.785 82.0781 195.129 82.5391C194.473 83 194.145 83.6523 194.145 84.4961C194.145 85.2305 194.367 85.7734 194.812 86.125C195.258 86.4766 195.848 86.6523 196.582 86.6523C197.723 86.6523 198.656 86.3359 199.383 85.7031C200.109 85.0703 200.473 84.1211 200.473 82.8555V81.6719ZM204.375 75.1562H206.461L209.297 82.6094C209.461 83.0469 209.613 83.4688 209.754 83.875C209.895 84.2734 210.02 84.6562 210.129 85.0234C210.238 85.3906 210.324 85.7461 210.387 86.0898H210.469C210.578 85.6992 210.734 85.1875 210.938 84.5547C211.141 83.9141 211.359 83.2617 211.594 82.5977L214.277 75.1562H216.375L210.785 89.8867C210.488 90.6758 210.141 91.3633 209.742 91.9492C209.352 92.5352 208.875 92.9844 208.312 93.2969C207.75 93.6172 207.07 93.7773 206.273 93.7773C205.906 93.7773 205.582 93.7539 205.301 93.707C205.02 93.668 204.777 93.6211 204.574 93.5664V92.0078C204.746 92.0469 204.953 92.082 205.195 92.1133C205.445 92.1445 205.703 92.1602 205.969 92.1602C206.453 92.1602 206.871 92.0664 207.223 91.8789C207.582 91.6992 207.891 91.4336 208.148 91.082C208.406 90.7305 208.629 90.3125 208.816 89.8281L209.52 88.0234L204.375 75.1562ZM237.914 70.8672V81.9531C237.914 83.1641 237.668 84.2422 237.176 85.1875C236.691 86.1328 235.957 86.8789 234.973 87.4258C233.988 87.9648 232.754 88.2344 231.27 88.2344C229.152 88.2344 227.539 87.6602 226.43 86.5117C225.328 85.3633 224.777 83.8281 224.777 81.9062V70.8672H226.781V81.9648C226.781 83.418 227.164 84.5391 227.93 85.3281C228.703 86.1172 229.855 86.5117 231.387 86.5117C232.434 86.5117 233.289 86.3242 233.953 85.9492C234.625 85.5664 235.121 85.0352 235.441 84.3555C235.77 83.668 235.934 82.875 235.934 81.9766V70.8672H237.914ZM248.203 74.9219C249.805 74.9219 251.082 75.4727 252.035 76.5742C252.988 77.6758 253.465 79.332 253.465 81.543C253.465 83.0039 253.246 84.2305 252.809 85.2227C252.371 86.2148 251.754 86.9648 250.957 87.4727C250.168 87.9805 249.234 88.2344 248.156 88.2344C247.477 88.2344 246.879 88.1445 246.363 87.9648C245.848 87.7852 245.406 87.543 245.039 87.2383C244.672 86.9336 244.367 86.6016 244.125 86.2422H243.984C244.008 86.5469 244.035 86.9141 244.066 87.3438C244.105 87.7734 244.125 88.1484 244.125 88.4688V93.7422H242.168V75.1562H243.773L244.031 77.0547H244.125C244.375 76.6641 244.68 76.3086 245.039 75.9883C245.398 75.6602 245.836 75.4023 246.352 75.2148C246.875 75.0195 247.492 74.9219 248.203 74.9219ZM247.863 76.5625C246.973 76.5625 246.254 76.7344 245.707 77.0781C245.168 77.4219 244.773 77.9375 244.523 78.625C244.273 79.3047 244.141 80.1602 244.125 81.1914V81.5664C244.125 82.6523 244.242 83.5703 244.477 84.3203C244.719 85.0703 245.113 85.6406 245.66 86.0312C246.215 86.4219 246.957 86.6172 247.887 86.6172C248.684 86.6172 249.348 86.4023 249.879 85.9727C250.41 85.543 250.805 84.9453 251.062 84.1797C251.328 83.4062 251.461 82.5195 251.461 81.5195C251.461 80.0039 251.164 78.8008 250.57 77.9102C249.984 77.0117 249.082 76.5625 247.863 76.5625ZM267.223 88H255.996V86.3711L260.578 81.7188C261.43 80.8594 262.145 80.0938 262.723 79.4219C263.309 78.75 263.754 78.0898 264.059 77.4414C264.363 76.7852 264.516 76.0664 264.516 75.2852C264.516 74.3164 264.227 73.5781 263.648 73.0703C263.078 72.5547 262.324 72.2969 261.387 72.2969C260.566 72.2969 259.84 72.4375 259.207 72.7188C258.574 73 257.926 73.3984 257.262 73.9141L256.219 72.6016C256.672 72.2188 257.164 71.8789 257.695 71.582C258.234 71.2852 258.809 71.0508 259.418 70.8789C260.035 70.707 260.691 70.6211 261.387 70.6211C262.441 70.6211 263.352 70.8047 264.117 71.1719C264.883 71.5391 265.473 72.0625 265.887 72.7422C266.309 73.4219 266.52 74.2305 266.52 75.168C266.52 76.0742 266.34 76.918 265.98 77.6992C265.621 78.4727 265.117 79.2422 264.469 80.0078C263.82 80.7656 263.062 81.5703 262.195 82.4219L258.469 86.1367V86.2188H267.223V88ZM284.496 79.2695C284.496 81.1992 284.145 82.8125 283.441 84.1094C282.738 85.3984 281.719 86.3711 280.383 87.0273C279.055 87.6758 277.441 88 275.543 88H270.891V70.8672H276.059C277.801 70.8672 279.301 71.1875 280.559 71.8281C281.816 72.4609 282.785 73.4023 283.465 74.6523C284.152 75.8945 284.496 77.4336 284.496 79.2695ZM282.398 79.3398C282.398 77.8008 282.141 76.5312 281.625 75.5312C281.117 74.5312 280.367 73.7891 279.375 73.3047C278.391 72.8125 277.184 72.5664 275.754 72.5664H272.883V86.2891H275.309C277.668 86.2891 279.438 85.707 280.617 84.543C281.805 83.3789 282.398 81.6445 282.398 79.3398ZM292.816 74.9453C294.348 74.9453 295.484 75.2891 296.227 75.9766C296.969 76.6641 297.34 77.7617 297.34 79.2695V88H295.922L295.547 86.1016H295.453C295.094 86.5703 294.719 86.9648 294.328 87.2852C293.938 87.5977 293.484 87.8359 292.969 88C292.461 88.1562 291.836 88.2344 291.094 88.2344C290.312 88.2344 289.617 88.0977 289.008 87.8242C288.406 87.5508 287.93 87.1367 287.578 86.582C287.234 86.0273 287.062 85.3242 287.062 84.4727C287.062 83.1914 287.57 82.207 288.586 81.5195C289.602 80.832 291.148 80.457 293.227 80.3945L295.441 80.3008V79.5156C295.441 78.4062 295.203 77.6289 294.727 77.1836C294.25 76.7383 293.578 76.5156 292.711 76.5156C292.039 76.5156 291.398 76.6133 290.789 76.8086C290.18 77.0039 289.602 77.2344 289.055 77.5L288.457 76.0234C289.035 75.7266 289.699 75.4727 290.449 75.2617C291.199 75.0508 291.988 74.9453 292.816 74.9453ZM295.418 81.6719L293.461 81.7539C291.859 81.8164 290.73 82.0781 290.074 82.5391C289.418 83 289.09 83.6523 289.09 84.4961C289.09 85.2305 289.312 85.7734 289.758 86.125C290.203 86.4766 290.793 86.6523 291.527 86.6523C292.668 86.6523 293.602 86.3359 294.328 85.7031C295.055 85.0703 295.418 84.1211 295.418 82.8555V81.6719ZM305.496 86.6406C305.816 86.6406 306.145 86.6133 306.48 86.5586C306.816 86.5039 307.09 86.4375 307.301 86.3594V87.8711C307.074 87.9727 306.758 88.0586 306.352 88.1289C305.953 88.1992 305.562 88.2344 305.18 88.2344C304.5 88.2344 303.883 88.1172 303.328 87.8828C302.773 87.6406 302.328 87.2344 301.992 86.6641C301.664 86.0938 301.5 85.3047 301.5 84.2969V76.6797H299.672V75.7305L301.512 74.9688L302.285 72.1797H303.457V75.1562H307.219V76.6797H303.457V84.2383C303.457 85.043 303.641 85.6445 304.008 86.043C304.383 86.4414 304.879 86.6406 305.496 86.6406ZM314.848 74.9219C315.941 74.9219 316.879 75.1641 317.66 75.6484C318.441 76.1328 319.039 76.8125 319.453 77.6875C319.867 78.5547 320.074 79.5703 320.074 80.7344V81.9414H311.203C311.227 83.4492 311.602 84.5977 312.328 85.3867C313.055 86.1758 314.078 86.5703 315.398 86.5703C316.211 86.5703 316.93 86.4961 317.555 86.3477C318.18 86.1992 318.828 85.9805 319.5 85.6914V87.4023C318.852 87.6914 318.207 87.9023 317.566 88.0352C316.934 88.168 316.184 88.2344 315.316 88.2344C314.082 88.2344 313.004 87.9844 312.082 87.4844C311.168 86.9766 310.457 86.2344 309.949 85.2578C309.441 84.2812 309.188 83.0859 309.188 81.6719C309.188 80.2891 309.418 79.0938 309.879 78.0859C310.348 77.0703 311.004 76.2891 311.848 75.7422C312.699 75.1953 313.699 74.9219 314.848 74.9219ZM314.824 76.5156C313.785 76.5156 312.957 76.8555 312.34 77.5352C311.723 78.2148 311.355 79.1641 311.238 80.3828H318.035C318.027 79.6172 317.906 78.9453 317.672 78.3672C317.445 77.7812 317.098 77.3281 316.629 77.0078C316.16 76.6797 315.559 76.5156 314.824 76.5156Z" fill="#1F363D"/>
<path d="M91.7584 32.3936C90.1184 32.3936 88.6861 32.0656 87.4616 31.4096C86.2371 30.7536 85.2859 29.704 84.608 28.2608C83.952 26.8176 83.624 24.9261 83.624 22.5864V10.5488H87.4288V22.8816C87.4288 24.4341 87.6037 25.6696 87.9536 26.588C88.3253 27.4845 88.8392 28.1296 89.4952 28.5232C90.1512 28.8949 90.9056 29.0808 91.7584 29.0808C92.6331 29.0808 93.3984 28.8949 94.0544 28.5232C94.7323 28.1296 95.2571 27.4845 95.6288 26.588C96.0224 25.6696 96.2192 24.4341 96.2192 22.8816V10.5488H99.86V22.5864C99.86 24.9261 99.532 26.8176 98.876 28.2608C98.22 29.704 97.2797 30.7536 96.0552 31.4096C94.8525 32.0656 93.4203 32.3936 91.7584 32.3936ZM104.887 38.3632V15.8952H108.003L108.266 17.6008H108.397C109.075 17.0323 109.829 16.5403 110.66 16.1248C111.513 15.7093 112.377 15.5016 113.251 15.5016C115.263 15.5016 116.816 16.2451 117.909 17.732C119.024 19.2189 119.582 21.2088 119.582 23.7016C119.582 25.5384 119.254 27.1128 118.598 28.4248C117.942 29.7149 117.089 30.6989 116.039 31.3768C115.012 32.0547 113.896 32.3936 112.694 32.3936C111.994 32.3936 111.294 32.2405 110.595 31.9344C109.895 31.6064 109.217 31.1691 108.561 30.6224L108.659 33.312V38.3632H104.887ZM111.907 29.2776C112.978 29.2776 113.875 28.8075 114.596 27.8672C115.318 26.9269 115.679 25.5493 115.679 23.7344C115.679 22.1163 115.405 20.8589 114.859 19.9624C114.312 19.0659 113.426 18.6176 112.202 18.6176C111.065 18.6176 109.884 19.2189 108.659 20.4216V27.9328C109.25 28.4139 109.818 28.7637 110.365 28.9824C110.912 29.1792 111.426 29.2776 111.907 29.2776ZM122.253 32V29.8024C124.2 27.9219 125.872 26.2491 127.272 24.784C128.693 23.2971 129.786 21.9523 130.552 20.7496C131.317 19.5251 131.7 18.388 131.7 17.3384C131.7 16.2451 131.405 15.3704 130.814 14.7144C130.224 14.0584 129.371 13.7304 128.256 13.7304C127.447 13.7304 126.703 13.96 126.025 14.4192C125.369 14.8784 124.757 15.4251 124.189 16.0592L122.089 13.96C123.052 12.9323 124.046 12.1451 125.074 11.5984C126.102 11.0299 127.326 10.7456 128.748 10.7456C130.76 10.7456 132.356 11.3251 133.537 12.484C134.739 13.6429 135.341 15.1955 135.341 17.1416C135.341 18.3661 134.991 19.6235 134.291 20.9136C133.613 22.1819 132.695 23.4829 131.536 24.8168C130.399 26.1507 129.141 27.5501 127.764 29.0152C128.31 28.9715 128.901 28.9277 129.535 28.884C130.169 28.8184 130.738 28.7856 131.241 28.7856H136.357V32H122.253ZM140.546 32V10.5488H146.286C149.566 10.5488 152.124 11.4344 153.961 13.2056C155.798 14.9768 156.716 17.6336 156.716 21.176C156.716 24.7403 155.809 27.4408 153.994 29.2776C152.179 31.0925 149.675 32 146.483 32H140.546ZM144.351 28.9168H146.023C148.188 28.9168 149.861 28.2936 151.042 27.0472C152.223 25.7789 152.813 23.8219 152.813 21.176C152.813 18.552 152.223 16.6387 151.042 15.436C149.861 14.2333 148.188 13.632 146.023 13.632H144.351V28.9168ZM164.621 32.3936C163.222 32.3936 162.074 31.9563 161.177 31.0816C160.302 30.2069 159.865 29.0699 159.865 27.6704C159.865 25.9429 160.619 24.6091 162.128 23.6688C163.637 22.7067 166.042 22.0507 169.344 21.7008C169.322 20.848 169.093 20.1155 168.655 19.5032C168.24 18.8691 167.486 18.552 166.392 18.552C165.605 18.552 164.829 18.7051 164.063 19.0112C163.32 19.3173 162.587 19.6891 161.866 20.1264L160.488 17.6008C161.385 17.0323 162.391 16.5403 163.506 16.1248C164.643 15.7093 165.846 15.5016 167.114 15.5016C169.126 15.5016 170.623 16.1029 171.607 17.3056C172.613 18.4864 173.116 20.2029 173.116 22.4552V32H170L169.738 30.2288H169.607C168.885 30.8411 168.109 31.3549 167.278 31.7704C166.469 32.1859 165.583 32.3936 164.621 32.3936ZM165.835 29.4416C166.491 29.4416 167.081 29.2885 167.606 28.9824C168.153 28.6544 168.732 28.2171 169.344 27.6704V24.0624C167.158 24.3467 165.638 24.7731 164.785 25.3416C163.932 25.8883 163.506 26.5661 163.506 27.3752C163.506 28.0968 163.725 28.6216 164.162 28.9496C164.599 29.2776 165.157 29.4416 165.835 29.4416ZM182.792 32.3936C180.934 32.3936 179.611 31.8579 178.823 30.7864C178.058 29.6931 177.675 28.2827 177.675 26.5552V18.88H175.379V16.0592L177.872 15.8952L178.331 11.5H181.48V15.8952H185.58V18.88H181.48V26.5552C181.48 28.4357 182.235 29.376 183.743 29.376C184.028 29.376 184.323 29.3432 184.629 29.2776C184.935 29.1901 185.198 29.1027 185.416 29.0152L186.072 31.8032C185.635 31.9563 185.132 32.0875 184.563 32.1968C184.017 32.328 183.426 32.3936 182.792 32.3936ZM195.345 32.3936C193.858 32.3936 192.513 32.0656 191.311 31.4096C190.108 30.7317 189.157 29.7696 188.457 28.5232C187.757 27.2549 187.407 25.7352 187.407 23.964C187.407 22.2147 187.757 20.7059 188.457 19.4376C189.179 18.1693 190.108 17.1963 191.245 16.5184C192.382 15.8405 193.574 15.5016 194.82 15.5016C196.285 15.5016 197.51 15.8296 198.494 16.4856C199.478 17.1197 200.221 18.0163 200.724 19.1752C201.227 20.3123 201.479 21.6352 201.479 23.144C201.479 23.9312 201.424 24.5435 201.315 24.9808H191.081C191.256 26.4021 191.77 27.5064 192.622 28.2936C193.475 29.0808 194.547 29.4744 195.837 29.4744C196.537 29.4744 197.182 29.376 197.772 29.1792C198.384 28.9605 198.986 28.6653 199.576 28.2936L200.855 30.6552C200.09 31.1581 199.237 31.5736 198.297 31.9016C197.357 32.2296 196.373 32.3936 195.345 32.3936ZM191.048 22.4224H198.198C198.198 21.176 197.925 20.2029 197.379 19.5032C196.832 18.7816 196.012 18.4208 194.919 18.4208C193.978 18.4208 193.136 18.7707 192.393 19.4704C191.671 20.1483 191.223 21.1323 191.048 22.4224Z" fill="#1F363D"/>
<circle cx="191" cy="6" r="3" fill="#1F363D"/>
<circle cx="202" cy="6" r="3" fill="#1F363D"/>
</svg>
