<svg width="124" height="41" viewBox="0 0 124 41" fill="none" xmlns="http://www.w3.org/2000/svg">
<path d="M10.7584 32.3936C9.1184 32.3936 7.68613 32.0656 6.4616 31.4096C5.23707 30.7536 4.28587 29.704 3.608 28.2608C2.952 26.8176 2.624 24.9261 2.624 22.5864V10.5488H6.4288V22.8816C6.4288 24.4341 6.60373 25.6696 6.9536 26.588C7.32533 27.4845 7.8392 28.1296 8.4952 28.5232C9.1512 28.8949 9.9056 29.0808 10.7584 29.0808C11.6331 29.0808 12.3984 28.8949 13.0544 28.5232C13.7323 28.1296 14.2571 27.4845 14.6288 26.588C15.0224 25.6696 15.2192 24.4341 15.2192 22.8816V10.5488H18.86V22.5864C18.86 24.9261 18.532 26.8176 17.876 28.2608C17.22 29.704 16.2797 30.7536 15.0552 31.4096C13.8525 32.0656 12.4203 32.3936 10.7584 32.3936ZM23.8874 38.3632V15.8952H27.0034L27.2658 17.6008H27.397C28.0748 17.0323 28.8292 16.5403 29.6602 16.1248C30.513 15.7093 31.3767 15.5016 32.2514 15.5016C34.2631 15.5016 35.8156 16.2451 36.909 17.732C38.0242 19.2189 38.5818 21.2088 38.5818 23.7016C38.5818 25.5384 38.2538 27.1128 37.5978 28.4248C36.9418 29.7149 36.089 30.6989 35.0394 31.3768C34.0116 32.0547 32.8964 32.3936 31.6938 32.3936C30.994 32.3936 30.2943 32.2405 29.5946 31.9344C28.8948 31.6064 28.217 31.1691 27.561 30.6224L27.6594 33.312V38.3632H23.8874ZM30.9066 29.2776C31.978 29.2776 32.8746 28.8075 33.5962 27.8672C34.3178 26.9269 34.6786 25.5493 34.6786 23.7344C34.6786 22.1163 34.4052 20.8589 33.8586 19.9624C33.3119 19.0659 32.4263 18.6176 31.2018 18.6176C30.0647 18.6176 28.8839 19.2189 27.6594 20.4216V27.9328C28.2498 28.4139 28.8183 28.7637 29.365 28.9824C29.9116 29.1792 30.4255 29.2776 30.9066 29.2776ZM41.2534 32V29.8024C43.1996 27.9219 44.8724 26.2491 46.2718 24.784C47.6932 23.2971 48.7865 21.9523 49.5518 20.7496C50.3172 19.5251 50.6998 18.388 50.6998 17.3384C50.6998 16.2451 50.4046 15.3704 49.8142 14.7144C49.2238 14.0584 48.371 13.7304 47.2558 13.7304C46.4468 13.7304 45.7033 13.96 45.0254 14.4192C44.3694 14.8784 43.7572 15.4251 43.1886 16.0592L41.0894 13.96C42.0516 12.9323 43.0465 12.1451 44.0742 11.5984C45.102 11.0299 46.3265 10.7456 47.7478 10.7456C49.7596 10.7456 51.3558 11.3251 52.5366 12.484C53.7393 13.6429 54.3406 15.1955 54.3406 17.1416C54.3406 18.3661 53.9908 19.6235 53.291 20.9136C52.6132 22.1819 51.6948 23.4829 50.5358 24.8168C49.3988 26.1507 48.1414 27.5501 46.7638 29.0152C47.3105 28.9715 47.9009 28.9277 48.535 28.884C49.1692 28.8184 49.7377 28.7856 50.2406 28.7856H55.3574V32H41.2534ZM59.5458 32V10.5488H65.2858C68.5658 10.5488 71.1242 11.4344 72.961 13.2056C74.7978 14.9768 75.7162 17.6336 75.7162 21.176C75.7162 24.7403 74.8088 27.4408 72.9938 29.2776C71.1789 31.0925 68.6752 32 65.4826 32H59.5458ZM63.3506 28.9168H65.0234C67.1882 28.9168 68.861 28.2936 70.0418 27.0472C71.2226 25.7789 71.813 23.8219 71.813 21.176C71.813 18.552 71.2226 16.6387 70.0418 15.436C68.861 14.2333 67.1882 13.632 65.0234 13.632H63.3506V28.9168ZM83.621 32.3936C82.2216 32.3936 81.0736 31.9563 80.177 31.0816C79.3024 30.2069 78.865 29.0699 78.865 27.6704C78.865 25.9429 79.6194 24.6091 81.1282 23.6688C82.637 22.7067 85.0424 22.0507 88.3442 21.7008C88.3224 20.848 88.0928 20.1155 87.6554 19.5032C87.24 18.8691 86.4856 18.552 85.3922 18.552C84.605 18.552 83.8288 18.7051 83.0634 19.0112C82.32 19.3173 81.5874 19.6891 80.8658 20.1264L79.4882 17.6008C80.3848 17.0323 81.3906 16.5403 82.5058 16.1248C83.6429 15.7093 84.8456 15.5016 86.1138 15.5016C88.1256 15.5016 89.6234 16.1029 90.6074 17.3056C91.6133 18.4864 92.1162 20.2029 92.1162 22.4552V32H89.0002L88.7378 30.2288H88.6066C87.885 30.8411 87.1088 31.3549 86.2778 31.7704C85.4688 32.1859 84.5832 32.3936 83.621 32.3936ZM84.8346 29.4416C85.4906 29.4416 86.081 29.2885 86.6058 28.9824C87.1525 28.6544 87.732 28.2171 88.3442 27.6704V24.0624C86.1576 24.3467 84.6378 24.7731 83.785 25.3416C82.9322 25.8883 82.5058 26.5661 82.5058 27.3752C82.5058 28.0968 82.7245 28.6216 83.1618 28.9496C83.5992 29.2776 84.1568 29.4416 84.8346 29.4416ZM101.792 32.3936C99.9336 32.3936 98.6106 31.8579 97.8234 30.7864C97.0581 29.6931 96.6754 28.2827 96.6754 26.5552V18.88H94.3794V16.0592L96.8722 15.8952L97.3314 11.5H100.48V15.8952H104.58V18.88H100.48V26.5552C100.48 28.4357 101.235 29.376 102.743 29.376C103.028 29.376 103.323 29.3432 103.629 29.2776C103.935 29.1901 104.198 29.1027 104.416 29.0152L105.072 31.8032C104.635 31.9563 104.132 32.0875 103.563 32.1968C103.017 32.328 102.426 32.3936 101.792 32.3936ZM114.345 32.3936C112.858 32.3936 111.513 32.0656 110.311 31.4096C109.108 30.7317 108.157 29.7696 107.457 28.5232C106.757 27.2549 106.407 25.7352 106.407 23.964C106.407 22.2147 106.757 20.7059 107.457 19.4376C108.179 18.1693 109.108 17.1963 110.245 16.5184C111.382 15.8405 112.574 15.5016 113.82 15.5016C115.285 15.5016 116.51 15.8296 117.494 16.4856C118.478 17.1197 119.221 18.0163 119.724 19.1752C120.227 20.3123 120.479 21.6352 120.479 23.144C120.479 23.9312 120.424 24.5435 120.315 24.9808H110.081C110.256 26.4021 110.77 27.5064 111.622 28.2936C112.475 29.0808 113.547 29.4744 114.837 29.4744C115.537 29.4744 116.182 29.376 116.772 29.1792C117.384 28.9605 117.986 28.6653 118.576 28.2936L119.855 30.6552C119.09 31.1581 118.237 31.5736 117.297 31.9016C116.357 32.2296 115.373 32.3936 114.345 32.3936ZM110.048 22.4224H117.198C117.198 21.176 116.925 20.2029 116.379 19.5032C115.832 18.7816 115.012 18.4208 113.919 18.4208C112.978 18.4208 112.136 18.7707 111.393 19.4704C110.671 20.1483 110.223 21.1323 110.048 22.4224Z" fill="#1F363D"/>
<circle cx="110" cy="6" r="3" fill="#1F363D"/>
<circle cx="121" cy="6" r="3" fill="#1F363D"/>
</svg>
